<mxfile host="app.diagrams.net" modified="2023-12-29T23:00:15.093Z" agent="Mozilla/5.0 (Windows NT 10.0; Win64; x64) AppleWebKit/537.36 (KHTML, like Gecko) Chrome/120.0.0.0 Safari/537.36" etag="jy7ntJCRk7Yo-Xu85ZEe" version="22.1.16" type="github">
  <diagram name="Page-1" id="LEl4_ss_O9HmyMaQCAU4">
    <mxGraphModel dx="2314" dy="1118" grid="1" gridSize="10" guides="1" tooltips="1" connect="1" arrows="1" fold="1" page="1" pageScale="1" pageWidth="827" pageHeight="1169" math="0" shadow="0">
      <root>
        <mxCell id="0" />
        <mxCell id="1" parent="0" />
        <mxCell id="mYPNtZZm5-2TLbYH50Ex-60" style="edgeStyle=none;rounded=0;orthogonalLoop=1;jettySize=auto;html=1;exitX=0.5;exitY=0.5;exitDx=0;exitDy=0;exitPerimeter=0;entryX=0;entryY=0.5;entryDx=0;entryDy=0;" edge="1" parent="1" source="mYPNtZZm5-2TLbYH50Ex-1" target="mYPNtZZm5-2TLbYH50Ex-15">
          <mxGeometry relative="1" as="geometry" />
        </mxCell>
        <mxCell id="mYPNtZZm5-2TLbYH50Ex-1" value="Actor" style="shape=umlActor;verticalLabelPosition=bottom;verticalAlign=top;html=1;outlineConnect=0;" vertex="1" parent="1">
          <mxGeometry x="40" y="325" width="120" height="230" as="geometry" />
        </mxCell>
        <mxCell id="mYPNtZZm5-2TLbYH50Ex-3" value="Створення облікового запису користувача" style="ellipse;whiteSpace=wrap;html=1;" vertex="1" parent="1">
          <mxGeometry x="1530" y="340" width="180" height="60" as="geometry" />
        </mxCell>
        <mxCell id="mYPNtZZm5-2TLbYH50Ex-58" style="edgeStyle=none;rounded=0;orthogonalLoop=1;jettySize=auto;html=1;exitX=1;exitY=0.5;exitDx=0;exitDy=0;entryX=0;entryY=0.5;entryDx=0;entryDy=0;" edge="1" parent="1" source="mYPNtZZm5-2TLbYH50Ex-4" target="mYPNtZZm5-2TLbYH50Ex-3">
          <mxGeometry relative="1" as="geometry" />
        </mxCell>
        <mxCell id="mYPNtZZm5-2TLbYH50Ex-59" value="&amp;lt;&amp;lt;extends&amp;gt;&amp;gt;" style="edgeLabel;html=1;align=center;verticalAlign=middle;resizable=0;points=[];" vertex="1" connectable="0" parent="mYPNtZZm5-2TLbYH50Ex-58">
          <mxGeometry x="-0.025" relative="1" as="geometry">
            <mxPoint as="offset" />
          </mxGeometry>
        </mxCell>
        <mxCell id="mYPNtZZm5-2TLbYH50Ex-4" value="Вхід до облікового запису користувача" style="ellipse;whiteSpace=wrap;html=1;" vertex="1" parent="1">
          <mxGeometry x="1270" y="340" width="180" height="60" as="geometry" />
        </mxCell>
        <mxCell id="mYPNtZZm5-2TLbYH50Ex-54" style="edgeStyle=none;rounded=0;orthogonalLoop=1;jettySize=auto;html=1;exitX=1;exitY=0.5;exitDx=0;exitDy=0;entryX=0;entryY=0.5;entryDx=0;entryDy=0;" edge="1" parent="1" source="mYPNtZZm5-2TLbYH50Ex-6" target="mYPNtZZm5-2TLbYH50Ex-53">
          <mxGeometry relative="1" as="geometry" />
        </mxCell>
        <mxCell id="mYPNtZZm5-2TLbYH50Ex-55" value="&amp;lt;&amp;lt;extends&amp;gt;&amp;gt;" style="edgeLabel;html=1;align=center;verticalAlign=middle;resizable=0;points=[];" vertex="1" connectable="0" parent="mYPNtZZm5-2TLbYH50Ex-54">
          <mxGeometry x="0.044" relative="1" as="geometry">
            <mxPoint as="offset" />
          </mxGeometry>
        </mxCell>
        <mxCell id="mYPNtZZm5-2TLbYH50Ex-6" value="Вхід до проекту" style="ellipse;whiteSpace=wrap;html=1;" vertex="1" parent="1">
          <mxGeometry x="1000" y="420" width="180" height="60" as="geometry" />
        </mxCell>
        <mxCell id="mYPNtZZm5-2TLbYH50Ex-40" style="edgeStyle=none;rounded=0;orthogonalLoop=1;jettySize=auto;html=1;exitX=1;exitY=0.5;exitDx=0;exitDy=0;entryX=0;entryY=0.5;entryDx=0;entryDy=0;" edge="1" parent="1" source="mYPNtZZm5-2TLbYH50Ex-9" target="mYPNtZZm5-2TLbYH50Ex-6">
          <mxGeometry relative="1" as="geometry" />
        </mxCell>
        <mxCell id="mYPNtZZm5-2TLbYH50Ex-47" value="&amp;lt;&amp;lt;includes&amp;gt;&amp;gt;" style="edgeLabel;html=1;align=center;verticalAlign=middle;resizable=0;points=[];" vertex="1" connectable="0" parent="mYPNtZZm5-2TLbYH50Ex-40">
          <mxGeometry x="0.0561" y="-1" relative="1" as="geometry">
            <mxPoint as="offset" />
          </mxGeometry>
        </mxCell>
        <mxCell id="mYPNtZZm5-2TLbYH50Ex-9" value="Додавання тексту" style="ellipse;whiteSpace=wrap;html=1;" vertex="1" parent="1">
          <mxGeometry x="520" y="230" width="180" height="60" as="geometry" />
        </mxCell>
        <mxCell id="mYPNtZZm5-2TLbYH50Ex-41" style="edgeStyle=none;rounded=0;orthogonalLoop=1;jettySize=auto;html=1;exitX=1;exitY=0.5;exitDx=0;exitDy=0;" edge="1" parent="1" source="mYPNtZZm5-2TLbYH50Ex-10">
          <mxGeometry relative="1" as="geometry">
            <mxPoint x="1000" y="450" as="targetPoint" />
          </mxGeometry>
        </mxCell>
        <mxCell id="mYPNtZZm5-2TLbYH50Ex-48" value="&amp;lt;&amp;lt;includes&amp;gt;&amp;gt;" style="edgeLabel;html=1;align=center;verticalAlign=middle;resizable=0;points=[];" vertex="1" connectable="0" parent="mYPNtZZm5-2TLbYH50Ex-41">
          <mxGeometry x="-0.2294" y="-2" relative="1" as="geometry">
            <mxPoint as="offset" />
          </mxGeometry>
        </mxCell>
        <mxCell id="mYPNtZZm5-2TLbYH50Ex-10" value="Редагування тексту" style="ellipse;whiteSpace=wrap;html=1;" vertex="1" parent="1">
          <mxGeometry x="520" y="310" width="180" height="60" as="geometry" />
        </mxCell>
        <mxCell id="mYPNtZZm5-2TLbYH50Ex-42" style="edgeStyle=none;rounded=0;orthogonalLoop=1;jettySize=auto;html=1;exitX=1;exitY=0.5;exitDx=0;exitDy=0;" edge="1" parent="1" source="mYPNtZZm5-2TLbYH50Ex-11">
          <mxGeometry relative="1" as="geometry">
            <mxPoint x="1000" y="450" as="targetPoint" />
          </mxGeometry>
        </mxCell>
        <mxCell id="mYPNtZZm5-2TLbYH50Ex-49" value="&amp;lt;&amp;lt;includes&amp;gt;&amp;gt;" style="edgeLabel;html=1;align=center;verticalAlign=middle;resizable=0;points=[];" vertex="1" connectable="0" parent="mYPNtZZm5-2TLbYH50Ex-42">
          <mxGeometry x="-0.1043" y="-4" relative="1" as="geometry">
            <mxPoint as="offset" />
          </mxGeometry>
        </mxCell>
        <mxCell id="mYPNtZZm5-2TLbYH50Ex-11" value="Видалення тексту" style="ellipse;whiteSpace=wrap;html=1;" vertex="1" parent="1">
          <mxGeometry x="520" y="390" width="180" height="60" as="geometry" />
        </mxCell>
        <mxCell id="mYPNtZZm5-2TLbYH50Ex-43" style="edgeStyle=none;rounded=0;orthogonalLoop=1;jettySize=auto;html=1;exitX=1;exitY=0.5;exitDx=0;exitDy=0;entryX=0;entryY=0.5;entryDx=0;entryDy=0;" edge="1" parent="1" source="mYPNtZZm5-2TLbYH50Ex-12" target="mYPNtZZm5-2TLbYH50Ex-6">
          <mxGeometry relative="1" as="geometry" />
        </mxCell>
        <mxCell id="mYPNtZZm5-2TLbYH50Ex-50" value="&amp;lt;&amp;lt;includes&amp;gt;&amp;gt;" style="edgeLabel;html=1;align=center;verticalAlign=middle;resizable=0;points=[];" vertex="1" connectable="0" parent="mYPNtZZm5-2TLbYH50Ex-43">
          <mxGeometry x="-0.0154" y="-2" relative="1" as="geometry">
            <mxPoint as="offset" />
          </mxGeometry>
        </mxCell>
        <mxCell id="mYPNtZZm5-2TLbYH50Ex-12" value="Додавання зображень" style="ellipse;whiteSpace=wrap;html=1;" vertex="1" parent="1">
          <mxGeometry x="520" y="480" width="180" height="60" as="geometry" />
        </mxCell>
        <mxCell id="mYPNtZZm5-2TLbYH50Ex-44" style="edgeStyle=none;rounded=0;orthogonalLoop=1;jettySize=auto;html=1;exitX=1;exitY=0.5;exitDx=0;exitDy=0;" edge="1" parent="1" source="mYPNtZZm5-2TLbYH50Ex-13">
          <mxGeometry relative="1" as="geometry">
            <mxPoint x="1000" y="450" as="targetPoint" />
          </mxGeometry>
        </mxCell>
        <mxCell id="mYPNtZZm5-2TLbYH50Ex-51" value="&amp;lt;&amp;lt;includes&amp;gt;&amp;gt;" style="edgeLabel;html=1;align=center;verticalAlign=middle;resizable=0;points=[];" vertex="1" connectable="0" parent="mYPNtZZm5-2TLbYH50Ex-44">
          <mxGeometry x="0.054" relative="1" as="geometry">
            <mxPoint as="offset" />
          </mxGeometry>
        </mxCell>
        <mxCell id="mYPNtZZm5-2TLbYH50Ex-13" value="Редагування зображень" style="ellipse;whiteSpace=wrap;html=1;" vertex="1" parent="1">
          <mxGeometry x="520" y="560" width="180" height="60" as="geometry" />
        </mxCell>
        <mxCell id="mYPNtZZm5-2TLbYH50Ex-45" style="edgeStyle=none;rounded=0;orthogonalLoop=1;jettySize=auto;html=1;exitX=1;exitY=0.5;exitDx=0;exitDy=0;entryX=0;entryY=0.5;entryDx=0;entryDy=0;" edge="1" parent="1" source="mYPNtZZm5-2TLbYH50Ex-14" target="mYPNtZZm5-2TLbYH50Ex-6">
          <mxGeometry relative="1" as="geometry" />
        </mxCell>
        <mxCell id="mYPNtZZm5-2TLbYH50Ex-52" value="&amp;lt;&amp;lt;includes&amp;gt;&amp;gt;" style="edgeLabel;html=1;align=center;verticalAlign=middle;resizable=0;points=[];" vertex="1" connectable="0" parent="mYPNtZZm5-2TLbYH50Ex-45">
          <mxGeometry x="0.1182" y="1" relative="1" as="geometry">
            <mxPoint as="offset" />
          </mxGeometry>
        </mxCell>
        <mxCell id="mYPNtZZm5-2TLbYH50Ex-14" value="Видалення зображень" style="ellipse;whiteSpace=wrap;html=1;" vertex="1" parent="1">
          <mxGeometry x="520" y="640" width="180" height="60" as="geometry" />
        </mxCell>
        <mxCell id="mYPNtZZm5-2TLbYH50Ex-19" value="&amp;lt;&amp;lt;include&amp;gt;&amp;gt;" style="edgeStyle=none;rounded=0;orthogonalLoop=1;jettySize=auto;html=1;exitX=1;exitY=0.5;exitDx=0;exitDy=0;entryX=0;entryY=0.5;entryDx=0;entryDy=0;" edge="1" parent="1" source="mYPNtZZm5-2TLbYH50Ex-15" target="mYPNtZZm5-2TLbYH50Ex-9">
          <mxGeometry relative="1" as="geometry" />
        </mxCell>
        <mxCell id="mYPNtZZm5-2TLbYH50Ex-21" style="edgeStyle=none;rounded=0;orthogonalLoop=1;jettySize=auto;html=1;exitX=1;exitY=0.5;exitDx=0;exitDy=0;entryX=0;entryY=0.5;entryDx=0;entryDy=0;" edge="1" parent="1" source="mYPNtZZm5-2TLbYH50Ex-15" target="mYPNtZZm5-2TLbYH50Ex-11">
          <mxGeometry relative="1" as="geometry" />
        </mxCell>
        <mxCell id="mYPNtZZm5-2TLbYH50Ex-29" value="&amp;lt;&amp;lt;extend&amp;gt;&amp;gt;" style="edgeLabel;html=1;align=center;verticalAlign=middle;resizable=0;points=[];" vertex="1" connectable="0" parent="mYPNtZZm5-2TLbYH50Ex-21">
          <mxGeometry x="0.2769" y="-1" relative="1" as="geometry">
            <mxPoint as="offset" />
          </mxGeometry>
        </mxCell>
        <mxCell id="mYPNtZZm5-2TLbYH50Ex-24" style="edgeStyle=none;rounded=0;orthogonalLoop=1;jettySize=auto;html=1;exitX=1;exitY=0.5;exitDx=0;exitDy=0;entryX=0;entryY=0.5;entryDx=0;entryDy=0;" edge="1" parent="1" source="mYPNtZZm5-2TLbYH50Ex-15" target="mYPNtZZm5-2TLbYH50Ex-14">
          <mxGeometry relative="1" as="geometry" />
        </mxCell>
        <mxCell id="mYPNtZZm5-2TLbYH50Ex-31" value="&amp;lt;&amp;lt;extend&amp;gt;&amp;gt;" style="edgeLabel;html=1;align=center;verticalAlign=middle;resizable=0;points=[];" vertex="1" connectable="0" parent="mYPNtZZm5-2TLbYH50Ex-24">
          <mxGeometry x="0.1571" relative="1" as="geometry">
            <mxPoint as="offset" />
          </mxGeometry>
        </mxCell>
        <mxCell id="mYPNtZZm5-2TLbYH50Ex-15" value="Конвертація візального шаблону у C# код" style="ellipse;whiteSpace=wrap;html=1;" vertex="1" parent="1">
          <mxGeometry x="210" y="410" width="180" height="60" as="geometry" />
        </mxCell>
        <mxCell id="mYPNtZZm5-2TLbYH50Ex-20" style="edgeStyle=none;rounded=0;orthogonalLoop=1;jettySize=auto;html=1;exitX=1;exitY=0.5;exitDx=0;exitDy=0;entryX=-0.006;entryY=0.65;entryDx=0;entryDy=0;entryPerimeter=0;" edge="1" parent="1" source="mYPNtZZm5-2TLbYH50Ex-15" target="mYPNtZZm5-2TLbYH50Ex-10">
          <mxGeometry relative="1" as="geometry" />
        </mxCell>
        <mxCell id="mYPNtZZm5-2TLbYH50Ex-27" value="&amp;lt;&amp;lt;extend&amp;gt;&amp;gt;" style="edgeLabel;html=1;align=center;verticalAlign=middle;resizable=0;points=[];" vertex="1" connectable="0" parent="mYPNtZZm5-2TLbYH50Ex-20">
          <mxGeometry x="0.2212" y="1" relative="1" as="geometry">
            <mxPoint as="offset" />
          </mxGeometry>
        </mxCell>
        <mxCell id="mYPNtZZm5-2TLbYH50Ex-22" style="edgeStyle=none;rounded=0;orthogonalLoop=1;jettySize=auto;html=1;exitX=1;exitY=0.5;exitDx=0;exitDy=0;entryX=-0.011;entryY=0.367;entryDx=0;entryDy=0;entryPerimeter=0;" edge="1" parent="1" source="mYPNtZZm5-2TLbYH50Ex-15" target="mYPNtZZm5-2TLbYH50Ex-12">
          <mxGeometry relative="1" as="geometry" />
        </mxCell>
        <mxCell id="mYPNtZZm5-2TLbYH50Ex-28" value="&amp;lt;&amp;lt;include&amp;gt;&amp;gt;" style="edgeLabel;html=1;align=center;verticalAlign=middle;resizable=0;points=[];" vertex="1" connectable="0" parent="mYPNtZZm5-2TLbYH50Ex-22">
          <mxGeometry x="0.2668" y="-2" relative="1" as="geometry">
            <mxPoint as="offset" />
          </mxGeometry>
        </mxCell>
        <mxCell id="mYPNtZZm5-2TLbYH50Ex-23" style="edgeStyle=none;rounded=0;orthogonalLoop=1;jettySize=auto;html=1;exitX=1;exitY=0.5;exitDx=0;exitDy=0;entryX=-0.011;entryY=0.4;entryDx=0;entryDy=0;entryPerimeter=0;" edge="1" parent="1" source="mYPNtZZm5-2TLbYH50Ex-15" target="mYPNtZZm5-2TLbYH50Ex-13">
          <mxGeometry relative="1" as="geometry" />
        </mxCell>
        <mxCell id="mYPNtZZm5-2TLbYH50Ex-30" value="&amp;lt;&amp;lt;extend&amp;gt;&amp;gt;" style="edgeLabel;html=1;align=center;verticalAlign=middle;resizable=0;points=[];" vertex="1" connectable="0" parent="mYPNtZZm5-2TLbYH50Ex-23">
          <mxGeometry x="0.178" y="-2" relative="1" as="geometry">
            <mxPoint as="offset" />
          </mxGeometry>
        </mxCell>
        <mxCell id="mYPNtZZm5-2TLbYH50Ex-53" value="Створення нового проекту" style="ellipse;whiteSpace=wrap;html=1;" vertex="1" parent="1">
          <mxGeometry x="1260" y="480" width="180" height="60" as="geometry" />
        </mxCell>
        <mxCell id="mYPNtZZm5-2TLbYH50Ex-56" style="edgeStyle=none;rounded=0;orthogonalLoop=1;jettySize=auto;html=1;exitX=1;exitY=0.5;exitDx=0;exitDy=0;entryX=0;entryY=0.667;entryDx=0;entryDy=0;entryPerimeter=0;" edge="1" parent="1" source="mYPNtZZm5-2TLbYH50Ex-6" target="mYPNtZZm5-2TLbYH50Ex-4">
          <mxGeometry relative="1" as="geometry" />
        </mxCell>
        <mxCell id="mYPNtZZm5-2TLbYH50Ex-57" value="&amp;lt;&amp;lt;includes&amp;gt;&amp;gt;" style="edgeLabel;html=1;align=center;verticalAlign=middle;resizable=0;points=[];" vertex="1" connectable="0" parent="mYPNtZZm5-2TLbYH50Ex-56">
          <mxGeometry x="0.1863" y="1" relative="1" as="geometry">
            <mxPoint y="1" as="offset" />
          </mxGeometry>
        </mxCell>
      </root>
    </mxGraphModel>
  </diagram>
</mxfile>
